<?xml version="1.0" encoding="UTF-8"?>
<!-- Created with Inkscape (http://www.inkscape.org/) -->
<svg width="364.88mm" height="111.03mm" version="1.1" viewBox="0 0 1292.9 393.42" xmlns="http://www.w3.org/2000/svg" xmlns:cc="http://creativecommons.org/ns#" xmlns:dc="http://purl.org/dc/elements/1.1/" xmlns:osb="http://www.openswatchbook.org/uri/2009/osb" xmlns:rdf="http://www.w3.org/1999/02/22-rdf-syntax-ns#" xmlns:xlink="http://www.w3.org/1999/xlink">
 <defs>
  <radialGradient id="radialGradient4345" cx="-63.515" cy="218.7" r="14.665" gradientTransform="matrix(.68142 0 0 .592 -20.866 87.59)" gradientUnits="userSpaceOnUse">
   <stop offset="0"/>
   <stop stop-opacity=".71193" offset="1"/>
  </radialGradient>
  <linearGradient id="linearGradient4397" x1="-196.98" x2="450.53" y1="323.54" y2="323.54" gradientTransform="matrix(.922 0 0 1.0045 21 -4.4977)" gradientUnits="userSpaceOnUse">
   <stop stop-color="#fe008a" offset="0"/>
   <stop stop-color="#09bfff" stop-opacity=".83137" offset=".16537"/>
   <stop stop-color="#410be2" offset=".35257"/>
   <stop stop-color="#fcff05" offset=".56318"/>
   <stop stop-color="#00fe00" stop-opacity=".94239" offset=".81747"/>
   <stop stop-color="#fea300" offset="1"/>
  </linearGradient>
  <linearGradient id="linearGradient8940" x1="-108.51" x2="426.28" y1="345.36" y2="349.4" gradientTransform="translate(0 4.7211e-6)" gradientUnits="userSpaceOnUse">
   <stop stop-color="#fe008a" offset="0"/>
   <stop stop-color="#09bfff" stop-opacity=".83137" offset=".29113"/>
   <stop stop-color="#410be2" offset=".47719"/>
   <stop stop-color="#fcff05" offset=".70169"/>
   <stop stop-color="#00fe00" offset=".80231"/>
   <stop stop-color="#ffaf19" offset=".90208"/>
   <stop stop-color="#f61414" offset="1"/>
  </linearGradient>
  <filter id="filter4896" color-interpolation-filters="sRGB">
   <feFlood flood-color="rgb(0,0,0)" flood-opacity=".49804" result="flood"/>
   <feComposite in="flood" in2="SourceGraphic" operator="in" result="composite1"/>
   <feGaussianBlur in="composite1" result="blur" stdDeviation="3"/>
   <feOffset dx="0" dy="0" result="offset"/>
   <feComposite in="SourceGraphic" in2="offset" result="composite2"/>
  </filter>
  <filter id="filter4896-6" color-interpolation-filters="sRGB">
   <feFlood flood-color="rgb(0,0,0)" flood-opacity=".49804" result="flood"/>
   <feComposite in="flood" in2="SourceGraphic" operator="in" result="composite1"/>
   <feGaussianBlur in="composite1" result="blur" stdDeviation="3"/>
   <feOffset dx="0" dy="0" result="offset"/>
   <feComposite in="SourceGraphic" in2="offset" result="composite2"/>
  </filter>
 </defs>
 <metadata>
  <rdf:RDF>
   <cc:Work rdf:about="">
    <dc:format>image/svg+xml</dc:format>
    <dc:type rdf:resource="http://purl.org/dc/dcmitype/StillImage"/>
    <dc:title/>
   </cc:Work>
  </rdf:RDF>
 </metadata>
 <g display="none">
  <text x="102.375" y="371.42783" display="inline" fill="#ffffff" filter="url(#filter4896-6)" font-family="sans-serif" letter-spacing="0px" stroke="#455a6f" stroke-opacity=".94118" stroke-width="3.4" word-spacing="0px" style="line-height:0%" xml:space="preserve"><tspan x="102.375" y="371.42783" dy="-10 10 0 0 0 0 0 0 0 10 -10 0 0 0 0 0 0 0 -10 10 0 0 0 0 0 0 0 10 -10 0 0 0 -10 10" rotate="0 0 0 0 0 0 0 0 0 0 0 0 0 0 0 0 0 0 0 0 0 0 0 0 0 0 0 0 0 0 0 0 0 0" fill="#ffffff" font-family="'Roboto Condensed'" font-size="70px" stroke="#455a6f" stroke-opacity=".94118" stroke-width="3.4">Blog des Articles Beaucoup Trop Longs</tspan></text>
 </g>
 <g transform="translate(779.03 304.81)">
  <g fill="#fff" filter="url(#filter4896)" stroke="#455a6f" stroke-opacity=".94118" stroke-width="3.4" aria-label="Blog des Articles Beaucoup Trop Longs">
   <path d="m-671.29 56.62v-49.766h14.185q6.8018 0 10.22 3.3154 3.4522 3.3154 3.4522 9.9463 0 3.4863-1.7432 6.1523-1.7432 2.666-4.7168 4.1357 3.418 1.0254 5.4004 4.2041 2.0166 3.1787 2.0166 7.6562 0 6.6992-3.6914 10.527-3.6572 3.8281-10.459 3.8281zm6.2549-23.276v17.91h8.5449q3.5547 0 5.6396-2.3242 2.085-2.3584 2.085-6.5967 0-8.9893-7.5879-8.9893zm0-5.2637h8.0322q3.2471 0 5.2295-2.1875 2.0166-2.1875 2.0166-5.8105 0-4.1016-1.8115-5.9473-1.8115-1.8799-5.5371-1.8799h-7.9297z"/>
   <path d="m-627.47 66.62h-6.0498v-52.5h6.0498z"/>
   <path d="m-619.27 46.419q0-8.0664 3.8965-12.749 3.9307-4.7168 10.356-4.7168 6.4258 0 10.322 4.5801 3.9307 4.5801 4.0332 12.476v3.8965q0 8.0322-3.8965 12.715-3.8965 4.6826-10.391 4.6826-6.4258 0-10.322-4.5459-3.8623-4.5459-3.999-12.305zm6.0498 3.4863q0 5.708 2.2217 8.9893 2.2559 3.2471 6.0498 3.2471 7.998 0 8.2373-11.553v-4.1699q0-5.6738-2.2559-8.9551-2.2559-3.3154-6.0498-3.3154-3.7256 0-5.9814 3.3154-2.2217 3.2812-2.2217 8.9209z"/>
   <path d="m-584.06 46.454q0-8.6475 3.1445-13.057 3.1445-4.4434 9.1943-4.4434 5.6396 0 8.5791 4.8193l0.30762-4.1357h5.4688v37.324q0 6.8701-3.5205 10.527-3.5205 3.6914-9.8096 3.6914-2.7344 0-6.1523-1.3672-3.3838-1.333-5.0928-3.3154l2.4609-4.1699q3.7598 3.6914 8.3057 3.6914 7.5537 0 7.7588-8.2373v-4.8193q-2.9394 4.3408-8.3398 4.3408-5.7422 0-8.9551-4.3066-3.2129-4.3408-3.3496-12.441zm6.0498 3.4521q0 6.2207 1.8115 9.1602 1.8457 2.9053 6.0156 2.9053 4.5117 0 6.7676-4.6143v-18.491q-2.3584-4.5459-6.6992-4.5459-4.1699 0-6.0156 2.9395-1.8457 2.9053-1.8799 8.9551z"/>
   <path d="m-533.68 46.454q0-8.5449 3.1787-13.022 3.2129-4.4775 9.1943-4.4775 5.2978 0 8.2715 4.3066v-19.141h6.0498v52.5h-5.5371l-0.30762-3.9648q-2.9736 4.6484-8.5107 4.6484-5.7422 0-9.0234-4.4434-3.2471-4.4775-3.3154-12.612zm6.0498 3.4521q0 6.2207 1.8457 9.1602 1.8457 2.9053 6.0156 2.9053 4.5117 0 6.7334-4.5459v-18.662q-2.3242-4.4434-6.6992-4.4434-4.1699 0-6.0156 2.9395-1.8457 2.9053-1.8799 8.9551z"/>
   <path d="m-484.46 67.303q-6.9043 0-10.596-4.1016-3.6914-4.1357-3.7598-12.1v-4.4775q0-8.2715 3.5889-12.954 3.623-4.7168 10.083-4.7168 6.4941 0 9.707 4.1357 3.2129 4.1357 3.2812 12.886v3.9648h-20.645v0.85449q0 5.9473 2.2217 8.6475 2.2559 2.7002 6.46 2.7002 2.666 0 4.6826-0.99121 2.0508-1.0254 3.8281-3.2129l3.1445 3.8281q-3.9307 5.5371-11.997 5.5371zm-0.68359-33.154q-3.7598 0-5.5713 2.5977-1.8115 2.5635-2.0508 7.998h14.561v-0.82031q-0.23926-5.2637-1.9141-7.5195-1.6406-2.2559-5.0244-2.2559z"/>
   <path d="m-446.9 57.152q0-1.9482-1.4697-3.3496-1.4697-1.4014-5.6738-3.2812-4.8877-2.0166-6.9043-3.4521-1.9824-1.4355-2.9736-3.2471-0.99121-1.8457-0.99121-4.375 0-4.5117 3.2812-7.4854 3.3154-3.0078 8.4424-3.0078 5.4004 0 8.6816 3.1445 3.2812 3.1445 3.2812 8.0664h-6.0156q0-2.4951-1.6748-4.2383-1.6748-1.7773-4.2725-1.7773-2.666 0-4.2041 1.4014-1.5039 1.3672-1.5039 3.6914 0 1.8457 1.0938 2.9736 1.1279 1.1279 5.3662 2.9736 6.7334 2.6318 9.1602 5.1611 2.4268 2.4951 2.4268 6.3574 0 4.8193-3.3154 7.7246-3.3154 2.8711-8.8867 2.8711-5.7764 0-9.3652-3.3154t-3.5889-8.4082h6.084q0.10254 3.0762 1.8799 4.8193t4.9902 1.7432q3.0078 0 4.5801-1.333 1.5723-1.3672 1.5723-3.6572z"/>
   <path d="m-392.96 63.631h-16.816l-3.8623 12.988h-6.4258l16.03-49.766h5.3662l16.064 49.766h-6.4258zm-15.176-5.4004h13.569l-6.8018-22.627z"/>
   <path d="m-361.41 35.311q-1.2646-0.23926-2.7344-0.23926-4.6484 0-6.4941 5.0928v26.455h-6.0498v-36.982h5.8789l0.10254 3.7598q2.4268-4.4434 6.8701-4.4434 1.4356 0 2.3926 0.47852z"/>
   <path d="m-345.66 20.682v8.9551h5.5713v4.8877h-5.5713v22.935q0 2.1875 0.71778 3.3154 0.71777 1.1279 2.4609 1.1279 1.1963 0 2.4268-0.41016l-0.0684 5.127q-2.0508 0.68359-4.2041 0.68359-3.5889 0-5.4688-2.5635-1.8799-2.5635-1.8799-7.2461v-22.969h-5.6396v-4.8877h5.6396v-8.9551z"/>
   <path d="m-326.41 66.62h-6.0498v-36.982h6.0498zm0.47851-46.792q0 1.5381-0.85449 2.5635-0.85449 1.0254-2.5977 1.0254-1.709 0-2.5635-1.0254-0.85449-1.0254-0.85449-2.5635t0.85449-2.5977q0.85449-1.0596 2.5635-1.0596 1.709 0 2.5635 1.0938 0.88867 1.0596 0.88867 2.5635z"/>
   <path d="m-304.09 62.142q3.0078 0 4.8193-1.8457 1.8115-1.8799 1.9824-5.332h5.708q-0.20508 5.332-3.794 8.8525-3.5547 3.4863-8.7158 3.4863-6.8701 0-10.493-4.3066-3.5889-4.3408-3.5889-12.886v-4.0674q0-8.374 3.5889-12.715 3.5889-4.375 10.459-4.375 5.6738 0 8.9893 3.5889 3.3496 3.5889 3.5547 9.8096h-5.708q-0.20508-4.1016-1.9824-6.1523-1.7432-2.0508-4.8535-2.0508-4.0332 0-5.9814 2.666-1.9482 2.6318-2.0166 8.6816v4.7168q0 6.5283 1.9141 9.2285 1.9482 2.7002 6.1182 2.7002z"/>
   <path d="m-278.02 66.62h-6.0498v-52.5h6.0498z"/>
   <path d="m-255.32 67.303q-6.9043 0-10.596-4.1016-3.6914-4.1357-3.7598-12.1v-4.4775q0-8.2715 3.5889-12.954 3.623-4.7168 10.083-4.7168 6.4941 0 9.707 4.1357 3.2129 4.1357 3.2812 12.886v3.9648h-20.645v0.85449q0 5.9473 2.2217 8.6475 2.2559 2.7002 6.46 2.7002 2.666 0 4.6826-0.99121 2.0508-1.0254 3.8281-3.2129l3.1445 3.8281q-3.9307 5.5371-11.997 5.5371zm-0.6836-33.154q-3.7598 0-5.5713 2.5977-1.8115 2.5635-2.0508 7.998h14.561v-0.82031q-0.23926-5.2637-1.9141-7.5195-1.6406-2.2559-5.0244-2.2559z"/>
   <path d="m-217.76 57.152q0-1.9482-1.4697-3.3496-1.4697-1.4014-5.6738-3.2812-4.8877-2.0166-6.9043-3.4521-1.9824-1.4355-2.9736-3.2471-0.99121-1.8457-0.99121-4.375 0-4.5117 3.2812-7.4854 3.3154-3.0078 8.4424-3.0078 5.4004 0 8.6816 3.1445 3.2812 3.1445 3.2812 8.0664h-6.0156q0-2.4951-1.6748-4.2383-1.6748-1.7773-4.2725-1.7773-2.666 0-4.2041 1.4014-1.5039 1.3672-1.5039 3.6914 0 1.8457 1.0938 2.9736 1.1279 1.1279 5.3662 2.9736 6.7334 2.6318 9.1602 5.1611 2.4268 2.4951 2.4268 6.3574 0 4.8193-3.3154 7.7246-3.3154 2.8711-8.8867 2.8711-5.7764 0-9.3652-3.3154-3.5889-3.3154-3.5889-8.4082h6.084q0.10254 3.0762 1.8799 4.8193 1.7773 1.7432 4.9902 1.7432 3.0078 0 4.5801-1.333 1.5723-1.3672 1.5723-3.6572z"/>
   <path d="m-187.03 56.62v-49.766h14.185q6.8018 0 10.22 3.3154 3.4522 3.3154 3.4522 9.9463 0 3.4863-1.7432 6.1523-1.7432 2.666-4.7168 4.1357 3.418 1.0254 5.4004 4.2041 2.0166 3.1787 2.0166 7.6562 0 6.6992-3.6914 10.527-3.6572 3.8281-10.459 3.8281zm6.2549-23.276v17.91h8.5449q3.5547 0 5.6396-2.3242 2.085-2.3584 2.085-6.5967 0-8.9893-7.5879-8.9893zm0-5.2637h8.0322q3.2471 0 5.2295-2.1875 2.0166-2.1875 2.0166-5.8105 0-4.1016-1.8115-5.9473-1.8115-1.8799-5.5371-1.8799h-7.9297z"/>
   <path d="m-136.51 67.303q-6.9043 0-10.596-4.1016-3.6914-4.1357-3.7598-12.1v-4.4775q0-8.2715 3.5889-12.954 3.623-4.7168 10.083-4.7168 6.4941 0 9.707 4.1357 3.2129 4.1357 3.2812 12.886v3.9648h-20.645v0.85449q0 5.9473 2.2217 8.6475 2.2559 2.7002 6.46 2.7002 2.666 0 4.6826-0.99121 2.0508-1.0254 3.8281-3.2129l3.1445 3.8281q-3.9307 5.5371-11.997 5.5371zm-0.68359-33.154q-3.7598 0-5.5713 2.5977-1.8115 2.5635-2.0508 7.998h14.561v-0.82031q-0.23925-5.2637-1.9141-7.5195-1.6406-2.2559-5.0244-2.2559z"/>
   <path d="m-97.889 66.62q-0.54688-1.1963-0.78613-4.0332-3.2129 4.7168-8.2031 4.7168-5.0244 0-7.8613-2.8027-2.8027-2.8369-2.8027-7.9639 0-5.6396 3.8281-8.9551 3.8281-3.3154 10.493-3.3838h4.4434v-3.9307q0-3.3154-1.4697-4.7168-1.4697-1.4014-4.4775-1.4014-2.7344 0-4.4434 1.6406-1.709 1.6064-1.709 4.1016h-6.0498q0-2.8369 1.6748-5.4004 1.6748-2.5977 4.5117-4.0674 2.8369-1.4697 6.3232-1.4697 5.6738 0 8.6133 2.8369 2.9736 2.8027 3.042 8.2031v18.662q0.03418 4.2725 1.1621 7.417v0.54688zm-8.0664-4.8193q2.2217 0 4.2383-1.2305 2.0166-1.2305 2.9395-3.0762v-8.8184h-3.418q-4.3066 0.06836-6.8018 1.9482-2.4951 1.8457-2.4951 5.1953 0 3.1445 1.2646 4.5801 1.2646 1.4014 4.2725 1.4014z"/>
   <path d="m-64.563 63.373q-3.0078 3.9307-8.7842 3.9307-5.0244 0-7.5879-3.4521-2.5635-3.4863-2.5977-10.117v-24.097h6.0156v23.652q0 8.6475 5.1953 8.6475 5.5029 0 7.5879-4.9219v-27.378h6.0498v36.982h-5.7422z"/>
   <path d="m-36.673 62.142q3.0078 0 4.8193-1.8457 1.8115-1.8799 1.9824-5.332h5.708q-0.20508 5.332-3.7939 8.8525-3.5547 3.4863-8.7158 3.4863-6.8701 0-10.493-4.3066-3.5889-4.3408-3.5889-12.886v-4.0674q0-8.374 3.5889-12.715 3.5889-4.375 10.459-4.375 5.6738 0 8.9893 3.5889 3.3496 3.5889 3.5547 9.8096h-5.708q-0.20508-4.1016-1.9824-6.1523-1.7432-2.0508-4.8535-2.0508-4.0332 0-5.9814 2.666-1.9482 2.6318-2.0166 8.6816v4.7168q0 6.5283 1.9141 9.2285 1.9482 2.7002 6.1182 2.7002z"/>
   <path d="m-18.387 46.419q0-8.0664 3.8965-12.749 3.9307-4.7168 10.356-4.7168 6.4258 0 10.322 4.5801 3.9307 4.5801 4.0332 12.476v3.8965q0 8.0322-3.8965 12.715-3.8965 4.6826-10.391 4.6826-6.4258 0-10.322-4.5459-3.8623-4.5459-3.999-12.305zm6.0498 3.4863q0 5.708 2.2217 8.9893 2.2559 3.2471 6.0498 3.2471 7.998 0 8.2373-11.553v-4.1699q0-5.6738-2.2559-8.9551-2.2559-3.3154-6.0498-3.3154-3.7256 0-5.9814 3.3154-2.2217 3.2812-2.2217 8.9209z"/>
   <path d="m36.882 63.373q-3.0078 3.9307-8.7842 3.9307-5.0244 0-7.5879-3.4521-2.5635-3.4863-2.5977-10.117v-24.097h6.0156v23.652q0 8.6475 5.1953 8.6475 5.5029 0 7.5879-4.9219v-27.378h6.0498v36.982h-5.7422z"/>
   <path d="m78.649 49.906q0 8.7842-3.1787 13.091-3.1445 4.3066-8.9209 4.3066-5.5713 0-8.5791-4.2041v17.739h-6.0156v-51.201h5.4688l0.30762 4.1016q3.042-4.7852 8.7158-4.7852 6.084 0 9.0918 4.2383 3.0078 4.2383 3.1104 12.681zm-6.0156-3.4521q0-6.2207-1.9141-9.1602-1.9141-2.9736-6.1523-2.9736-4.3408 0-6.5967 4.3408v19.243q2.2217 4.2383 6.665 4.2383 4.1016 0 6.0156-2.9395 1.9482-2.9736 1.9824-9.0576z"/>
   <path d="m132.45 32.254h-13.091v44.365h-6.2549v-44.365h-13.057v-5.4004h32.402z"/>
   <path d="m154.29 35.311q-1.2646-0.23926-2.7344-0.23926-4.6484 0-6.4941 5.0928v26.455h-6.0498v-36.982h5.8789l0.10254 3.7598q2.4268-4.4434 6.8701-4.4434 1.4356 0 2.3926 0.47852z"/>
   <path d="m158.39 46.419q0-8.0664 3.8965-12.749 3.9307-4.7168 10.356-4.7168 6.4258 0 10.322 4.5801 3.9307 4.5801 4.0332 12.476v3.8965q0 8.0322-3.8965 12.715-3.8965 4.6826-10.391 4.6826-6.4258 0-10.322-4.5459-3.8623-4.5459-3.999-12.305zm6.0498 3.4863q0 5.708 2.2217 8.9893 2.2559 3.2471 6.0498 3.2471 7.998 0 8.2373-11.553v-4.1699q0-5.6738-2.2559-8.9551-2.2559-3.3154-6.0498-3.3154-3.7256 0-5.9814 3.3154-2.2217 3.2812-2.2217 8.9209z"/>
   <path d="m221.52 49.906q0 8.7842-3.1787 13.091-3.1445 4.3066-8.9209 4.3066-5.5713 0-8.5791-4.2041v17.739h-6.0156v-51.201h5.4688l0.30762 4.1016q3.042-4.7852 8.7158-4.7852 6.084 0 9.0918 4.2383 3.0078 4.2383 3.1104 12.681zm-6.0156-3.4521q0-6.2207-1.9141-9.1602-1.9141-2.9736-6.1523-2.9736-4.3408 0-6.5967 4.3408v19.243q2.2217 4.2383 6.665 4.2383 4.1016 0 6.0156-2.9395 1.9482-2.9736 1.9824-9.0576z"/>
   <path d="m252.52 51.253h19.517v5.3662h-25.806v-49.766h6.2891z"/>
   <path d="m277.34 46.419q0-8.0664 3.8965-12.749 3.9307-4.7168 10.356-4.7168t10.322 4.5801q3.9307 4.5801 4.0332 12.476v3.8965q0 8.0322-3.8965 12.715-3.8965 4.6826-10.391 4.6826-6.4258 0-10.322-4.5459-3.8623-4.5459-3.999-12.305zm6.0498 3.4863q0 5.708 2.2217 8.9893 2.2559 3.2471 6.0498 3.2471 7.998 0 8.2373-11.553v-4.1699q0-5.6738-2.2559-8.9551-2.2559-3.3154-6.0498-3.3154-3.7256 0-5.9814 3.3154-2.2217 3.2812-2.2217 8.9209z"/>
   <path d="m319.45 29.637 0.1709 3.999q3.5205-4.6826 8.9893-4.6826 9.8096 0 9.9463 13.091v24.575h-6.0156v-24.302q0-4.3408-1.4697-6.1523-1.4356-1.8457-4.3408-1.8457-2.2559 0-4.0674 1.5039-1.7773 1.5039-2.8711 3.9307v26.865h-6.0498v-36.982z"/>
   <path d="m346.45 46.454q0-8.6475 3.1445-13.057 3.1445-4.4434 9.1943-4.4434 5.6396 0 8.5791 4.8193l0.30762-4.1357h5.4688v37.324q0 6.8701-3.5205 10.527-3.5205 3.6914-9.8096 3.6914-2.7344 0-6.1523-1.3672-3.3838-1.333-5.0928-3.3154l2.4609-4.1699q3.7598 3.6914 8.3057 3.6914 7.5537 0 7.7588-8.2373v-4.8193q-2.9395 4.3408-8.3398 4.3408-5.7422 0-8.9551-4.3066-3.2129-4.3408-3.3496-12.441zm6.0498 3.4521q0 6.2207 1.8115 9.1602 1.8457 2.9053 6.0156 2.9053 4.5117 0 6.7676-4.6143v-18.491q-2.3584-4.5459-6.6992-4.5459-4.1699 0-6.0156 2.9395-1.8457 2.9053-1.8799 8.9551z"/>
   <path d="m400.08 57.152q0-1.9482-1.4697-3.3496t-5.6738-3.2812q-4.8877-2.0166-6.9043-3.4521-1.9824-1.4355-2.9736-3.2471-0.99121-1.8457-0.99121-4.375 0-4.5117 3.2812-7.4854 3.3154-3.0078 8.4424-3.0078 5.4004 0 8.6816 3.1445 3.2812 3.1445 3.2812 8.0664h-6.0156q0-2.4951-1.6748-4.2383-1.6748-1.7773-4.2725-1.7773-2.666 0-4.2041 1.4014-1.5039 1.3672-1.5039 3.6914 0 1.8457 1.0938 2.9736 1.1279 1.1279 5.3662 2.9736 6.7334 2.6318 9.1602 5.1611 2.4268 2.4951 2.4268 6.3574 0 4.8193-3.3154 7.7246-3.3154 2.8711-8.8867 2.8711-5.7764 0-9.3652-3.3154-3.5889-3.3154-3.5889-8.4082h6.084q0.10254 3.0762 1.8799 4.8193 1.7773 1.7432 4.9902 1.7432 3.0078 0 4.5801-1.333 1.5723-1.3672 1.5723-3.6572z"/>
  </g>
  <rect x="-671.54" y="-2.5193" width="1078.7" height="4.6426" fill="#fff" stroke="#455a6f" stroke-opacity=".94118" stroke-width="2.7979"/>
  <g transform="matrix(.5673 0 0 .5673 -298.82 -237.67)">
   <g transform="translate(153.83 -127.18)">
    <path d="m230.08 188.4c-7.242 0.11527-14.527 0.54081-21.697 1.4067-3.9806 1.9009-7.7987 4.4635-11.876 5.9713-28.873-0.13602-57.785-0.1169-86.605-1.4765-9.8128-0.5381-19.721-1.9124-29.545-2.3348-2.1056 0.6278-3.3894 3.9035-6.0914 2.5935-9.534-1.0331-19.195-3.0707-28.825-3.7464-3.229 0.72208-3.3243 5.9408-7.0471 4.8649-16.455 0.46951-32.976 0.0517-49.379 1.5551-14.756 2.0247-29.229 5.8263-43.494 9.9099-14.553-0.0551-29.181 0.18599-43.686-0.45653-2.9167 0.94124-1.2423 4.4807 1.0032 5.0665 6.3091 3.2719 12.95 6.2972 18.17 11.264-0.65682 2.193-1.3697 4.9927-4.1797 5.103-8.1247 2.065-16.55 3.9348-24.312 7.406-10.371 3.368-21.354 4.8995-31.771 8.3234-4.0003 2.0303-5.3759 6.979-6.128 11.077 0.6581 8.9888 3.7528 19.261 12.23 23.843 9.8651 4.7838 21.177 1.6074 31.303-0.49231 12.254 0.37245 24.583 1.8158 36.867 2.6015 7.2912 0.76186 14.828 0.2964 21.656 3.3702 12.475 3.9341 24.803 8.5823 37.635 11.224 5.7694 0.4448 11.664-0.0243 17.214 2.0266 18.946 4.7122 37.354 12.072 56.932 13.844 27.706 2.6411 55.381 5.1638 83.058 8.0919 18.247 2.0504 36.626 2.4944 54.964 1.7114 5.4013-0.0931 10.873 0.16938 15.93-2.0832 4.7611-1.2228 9.7326-3.8445 14.644-1.698 8.1697 2.5898 15.866 6.3005 23.581 9.98 9.027 7.9601 19.26 14.843 26.743 24.199 3.0836 4.3019 6.1384 8.7726 8.5458 13.436-2.6992 5.4656-6.8775 10.206-9.3568 15.693 0.47185 2.55 3.6435 3.8947 4.236 6.6307 1.0941 3.0908 2.3775 6.2708 3.2652 9.3439-2.2738 5.6754-5.0278 11.367-7.9523 16.751-11.891 11.469-26.308 19.813-39.651 29.42-3.7133 1.9424-6.3523 5.0058-8.3904 8.6106-2.4277 3.199-4.2899 6.9565-6.6255 10.109-16.529-7.0885-33.865-13.704-50.768-20.405-9.4392-4.2818-19.908-5.1495-29.881-7.6611-22.758-4.767-45.465-9.965-68.254-14.463-7.2626 0.21364-14.623-0.0621-21.825 0.45355-3.3302 1.5743 0.36742 5.0257 1.311 7.1746 1.5149 2.0324-2.9759 2.8219-3.4901 4.7495-0.90164 3.086 1.9968 6.1498 2.7172 9.2008 0.72016 3.1755 2.7572 5.4848 5.7546 6.7179 3.8019 2.3102 7.6045 4.6191 11.407 6.9283 1.4778 5.4657 1.9976 11.326 4.158 16.542 6.1015 5.3794 13.117 9.709 19.889 14.153 36.352 8.102 72.943 15.11 109.54 21.994 13.747-0.31047 27.503-1.1509 41.239-1.3386 1.0496 0.6099 0.0939 2.7838 0.92137 3.8552 1.7817 3.319 6.2662 1.4309 9.1871 1.4164 12.072-0.99943 22.892-6.9748 34.242-10.683 8.7711-3.0659 17.782-5.893 25.384-11.438 15.978-10.927 31.673-22.943 43.246-38.66 12.239-14.635 25.09-28.859 35.275-45.067 3.6978-6.0917 8.2582-11.917 10.43-18.767 0.27992-2.2243-2.1999-3.8123-2.917-5.4434 4.2898-0.1662 8.6642 1.057 12.861 0.43701 2.0394-4.1974 2.0892-9.2145 3.1045-13.782 2.5254-16.35 4.5707-32.782 7.368-49.084-1.4666-12.909-2.0483-26.102-5.689-38.633-8.2991-13.06-18.021-25.178-27.458-37.431-6.8044-8.5654-13.96-17.046-22.161-24.241-12.112-5.5158-24.005-11.634-36.253-16.773-15.764-3.6068-31.318-8.2288-47.241-11.089-13.154-1.1639-26.406-0.66506-39.595-1.2847-7.9533-0.1992-15.905-0.55371-23.863-0.51756z" fill="url(#linearGradient8940)"/>
   </g>
   <g transform="translate(153.83 -127.18)" fill="#d912d6" fill-opacity=".375">
    <path d="m-134.88 128.65c-5.7233 0.10373-12.848-0.45284-16.753 4.6404-1.8184 3.2423 2.246 5.5022 4.9422 5.8666 11.75 2.3692 23.855 2.4231 35.466 4.8519 11.946 2.3852 24.716 5.1692 33.958 13.794 12.974 12.736 22.006 28.681 30.927 44.32 2.2457 3.4826 6.7635 1.2011 9.7021 0.25877 2.6989-2.2017-1.2778-5.0367-2.1774-7.3237-10.619-16.474-20.231-33.846-33.273-48.605-8.9563-9.852-22.567-13.22-35.173-15.55-9.1189-1.5341-18.37-2.3242-27.618-2.2531z" opacity=".44406"/>
    <path d="m239.61 317.6c-2.85 1.5789-2.7542 5.7169-4.2879 8.3792-2.8222 7.0812-5.1834 14.439-8.2646 21.358-4.9042 5.1845-9.5153 10.75-14.596 15.704-6.2638 2.9798-12.172 6.9479-18.665 9.2906-8.2511 1.3664-16.328 4.6004-24.788 3.7246-6.6073 0.15068-13.381-0.96365-19.901 0.18285-2.902 1.6795 0.0325 5.2228 2.5609 4.9876 14.744 0.66228 29.58 0.64389 44.185-1.7458 4.3996-0.88433 9.1987-0.60154 13.36-2.2642 6.9239-5.4219 13.775-10.992 20.382-16.773 3.7522-6.8774 8.1026-13.503 11.494-20.533 1.2604-6.3303 3.2503-12.586 4.0462-18.973-0.83506-1.9249-3.4744-3.3198-5.5252-3.3382z" opacity=".44406"/>
    <path d="m248.82 321.84c-3.3701 1.2359-2.5315 5.8151-3.5737 8.6106-1.8151 9.4452-6.0377 18.408-9.9874 27.178-10.027 8.2665-20.378 16.315-30.577 24.455-11.14 2.6028-22.661 3.9819-33.446 7.8948-2.7769 0.65846-2.8936 5.1194 0.24169 5.1583 9.2576-0.1 18.559-0.97643 27.754-1.8467 8.9329-4.8393 18.165-9.2321 26.916-14.344 5.8234-5.4855 11.988-10.668 17.601-16.34 2.8633-6.9455 6.452-13.681 8.8751-20.755 0.23349-5.6072 1.3588-11.247 1.3635-16.819-0.74847-1.8879-3.2379-3.1135-5.1662-3.1912z" opacity=".44406"/>
    <path d="m258.23 326.13c-3.2796 0.53446-2.5844 4.983-3.6502 7.3423-2.2253 8.388-3.7318 17.146-6.306 25.323-13.928 14.295-29.716 26.592-44.817 39.593-4.3648 1.2169-9.4254 0.8222-13.339 3.2682-2.0142 1.918-0.4592 5.6404 2.4504 5.1593 4.2099-2e-3 8.7115 0.78721 12.271-2.0401 16.782-8.6434 34.279-18.219 45.243-34.136 3.6038-5.7426 6.4705-12.007 8.886-18.294 0.84714-7.7863 2.4653-15.564 2.7634-23.371-0.40854-1.5315-1.8607-2.8859-3.502-2.845z" opacity=".44406"/>
    <path d="m265.53 332.22c-3.1878 1.1141-1.7884 5.4477-2.5952 8.0146-0.85255 5.4983-0.0134 11.485-3.4462 16.225-3.1086 5.765-5.7906 11.869-9.1592 17.427-7.9731 6.5082-15.557 13.624-23.769 19.759-7.6246 3.8789-15.844 6.7488-23.029 11.416-2.2522 1.6514-1.1255 5.8944 1.9503 5.3329 7.6012-0.23733 14.838-3.0324 21.876-5.4966 7.4215-4.1543 14.629-8.8419 21.203-14.245 8.6992-8.5601 12.466-20.465 18.971-30.498 2.3368-5.9483 1.8473-12.585 2.6605-18.844 0.0818-2.9184 1.4415-7.0337-2.2551-8.2548-0.73188-0.42907-1.5225-0.90492-2.407-0.83653z" opacity=".44406"/>
    <path d="m270.36 336.99c-2.3738 2.1813-1.3549 5.9971-2.0159 8.9081-0.57609 6.0197-0.3933 12.562-4.2957 17.611-6.3737 10.577-10.6 23.627-21.717 30.298-6.1809 4.272-12.427 8.5806-19.253 11.707-2.4858 1.8135 0.0916 5.1366 2.6467 4.2853 8.0118-0.46332 14.752-5.5223 21.945-8.541 4.3299-2.3406 9.1094-4.014 13.16-6.7691 4.6888-7.569 9.7078-14.97 14.189-22.645 2.173-8.8916 2.8144-18.026 2.4908-27.154 0.79757-3.1216-1.2364-5.3064-3.7269-6.7613-0.98747-0.68465-2.172-1.5019-3.4231-0.93912z" opacity=".44406"/>
   </g>
   <g transform="translate(153.83 -127.18)" display="none">
    <path d="m-160.61 96.758h597v447.5h-597z" fill="url(#linearGradient4397)"/>
   </g>
   <g transform="translate(153.83 -127.18)" fill="none" stroke="#000" stroke-width="3">
    <g>
     <path d="m57.857 431.65 48.214 4.2857 54.643 8.9286 54.643 15.714 16.786 4.6429v-3.5714l-57.857-22.857-91.429-19.643h-25l5 8.5714-5 3.9286 5.3571 13.214 15.357 9.2857 3.9286 17.143 19.286 13.214 37.143 8.2143 72.5 13.929 42.143-1.4286-6.0714-7.8572-6.0714-15-4.2857-13.214-6.0714-7.1429 10.714-15.714 35.714-24.643 8.9286-8.2143 8.2143-16.786" stroke-linecap="round"/>
     <path d="m253.57 504.51 1.0714 7.1429 17.5-2.1429 9.6428-3.5714 17.5-6.7857 13.214-4.2857 10-5.7143 18.571-13.571 16.429-14.643 9.6429-12.5 18.571-21.429 11.071-15 11.786-18.214 3.9286-7.8572-3.9286-5.3571 13.571 0.71429 2.8571-14.286"/>
     <path d="m408.57 379.86h-15l-17.857 3.9286-26.786 4.2857-18.571-6.4286-12.143-6.0714-10.357-3.5714-11.429 2.1429-11.071 6.0714 5 5 3.9286 11.429" stroke-linecap="round"/>
     <path d="m294.11 397.45 0.0893-1.25"/>
    </g>
    <path d="m424.95 367.15 4.0406-29.8 3.1567-18.562-2.3991-24.37-3.0305-14.647-11.358-16.34-22.857-29.643-13.929-14.643-36.071-17.143-34.286-8.5714-13.929-3.2143-42.857-1.0714-22.143-0.71429-20.714 1.4286-11.429 6.0714h-28.214l-51.786-0.71428-37.5-3.2143-3.2143 3.2143-32.143-4.6429-3.5714 5.7143h-18.571s-22.21-0.19767-33.214 1.0714c-9.6485 1.1127-28.571 5.7143-28.571 5.7143l-15 4.2857-24.643 0.53571-29.821-1.7857 8.144 3.7859 14.892 7.107 7.5 6.0714-2.1429 4.6429-21.367 5.3825c-4.3621 4.8034-34.097 8.3483-39.463 11.923l-3.9286 8.5491c2.8438 33.84 25.048 28.855 44.435 24.315l50.324 3.7583 29.286 9.6428 15.714 4.2857h11.071l20.194 5.5515 24.989 7.2908c19.727 3.6831 27.213 3.4752 45.699 5.2631 25.975 2.0239 49.91 5.8524 85.335 7.835l35.608-1.0102 14.647-4.5457 9.0914 2.0203 19.698 9.0914 15.152 12.627 10.607 9.5964 10.102 15.657-10.102 15.657" stroke-linecap="round" stroke-linejoin="round"/>
   </g>
   <g transform="translate(153.83 -127.18)" fill="none" stroke="#000" stroke-width="1px">
    <path d="m229.64 188.79 3.2143 27.5v21.786s0.89281 16.185 1.0714 24.286c0.1417 6.427 1.0297 12.94 0 19.286-1.0251 6.3172-6.0714 18.214-6.0714 18.214l-4.6428 15-1.4227 4.3187"/>
    <path d="m273.04 337.01 24.107-13.929 29.286-17.5 22.857-17.857 15.357-19.286 8.9286-22.143 4.857-13.036 2.7779-11.743"/>
    <path d="m288.15 351.82 22.476 1.7678 25.254-3.5355 25.001-12.627 28.789-21.971 12.122-18.94 14.395-21.971 2.2728-7.3236"/>
    <path d="m252.79 323.54 23.234-33.082 31.315-42.174 13.385-29.294 5.8084-16.162v-4.7982"/>
   </g>
   <g transform="translate(153.83 -127.18)" display="none" fill="none" stroke="#000" stroke-width="3">
    <g>
     <path d="m232.14 461.65-57.857-22.857-91.429-19.643h-25l5 8.5714-5 3.9286 5.3571 13.214 15.357 9.2857 3.9286 17.143 19.286 13.214 37.143 8.2143 72.5 13.929 42.143-1.4286m-22.5-43.214 10.714-15.714 35.714-24.643 8.9286-8.2143 8.2143-16.786" display="inline" stroke-linecap="round"/>
     <path d="m253.57 504.51 1.0714 7.1429 17.5-2.1429 9.6428-3.5714 17.5-6.7857 13.214-4.2857 10-5.7143 18.571-13.571 16.429-14.643 9.6429-12.5 18.571-21.429 11.071-15 11.786-18.214 3.9286-7.8572-3.9286-5.3571 13.571 0.71429 2.8571-14.286" display="inline"/>
     <path d="m285.36 380.22 5 5 3.9286 11.429" display="inline" stroke-linecap="round"/>
     <path d="m294.11 397.45 0.0893-1.25" display="inline"/>
    </g>
    <path d="m424.95 367.15 4.0406-29.8 3.1567-18.562-2.3991-24.37-3.0305-14.647-11.358-16.34-22.857-29.643-13.929-14.643-36.071-17.143-34.286-8.5714-13.929-3.2143-42.857-1.0714-22.143-0.71429-20.714 1.4286-11.429 6.0714h-28.214l-51.786-0.71428-37.5-3.2143-3.2143 3.2143-32.143-4.6429-3.5714 5.7143h-18.571s-22.21-0.19767-33.214 1.0714c-9.6485 1.1127-28.571 5.7143-28.571 5.7143l-15 4.2857-24.643 0.53571-29.821-1.7857 8.144 3.7859 14.892 7.107 7.5 6.0714-2.1429 4.6429-21.367 5.3825c-4.3621 4.8034-34.097 8.3483-39.463 11.923l-3.9286 8.5491c2.8438 33.84 25.048 28.855 44.435 24.315l50.324 3.7583 29.286 9.6428 15.714 4.2857h11.071l20.194 5.5515 24.989 7.2908c19.727 3.6831 27.213 3.4752 45.699 5.2631 25.975 2.0239 49.91 5.8524 85.335 7.835l35.608-1.0102 14.647-4.5457 9.0914 2.0203 19.698 9.0914 15.152 12.627 10.607 9.5964 10.102 15.657-10.102 15.657" display="inline" stroke-linecap="round" stroke-linejoin="round"/>
   </g>
   <g transform="translate(153.83 -127.18)" fill="none" stroke="#000" stroke-width="3">
    <path d="m-35 200.22c2.64 8.2972-26.222-45.316-40.714-57.143-20.303-16.569-67.143-14.286-67.143-14.286s-9.7643 2.3353-9.4643 6.0714c0.35847 4.4642 12.321 5.3572 12.321 5.3572"/>
    <path d="m-45 204.51s-20.022-39.808-37.857-51.429c-16.553-10.785-57.857-12.857-57.857-12.857"/>
   </g>
   <g transform="translate(153.83 -127.18)" fill="none" stroke="#000" stroke-width="2">
    <path d="m244.96 319.75-4.7982 20.961-11.364 19.698-20.203 16.668-29.547 3.7881h-26.264l-12.374-3.283 2.5254-1.2627h6.0609l25.759 0.75762 21.213-4.5457 17.173-9.0914 14.9-16.162 11.112-29.547"/>
    <path d="m253.57 323.79-1.7857 18.929-8.5714 19.643-17.857 16.429-26.429 13.929-24.643 1.7857-5.7143-0.35714-0.35714-2.5 9.2857-3.2143 27.5-5.7143 17.5-13.929 13.571-10.714 8.5714-20.714 3.2143-16.429"/>
    <path d="m261.43 328.08-3.2143 24.643-6.4286 14.286-5.3571 7.8571-10.357 10.357-15.714 10.714-19.286 10h-11.071v-4.2857l3.2143-0.71429 10.357-1.7857 33.929-28.571 11.786-11.786 7.8572-33.214"/>
    <path d="m270 334.15-1.0714 13.929-1.0714 10.357-5 8.2143-7.8571 15.357-7.1429 8.9286-19.643 13.214-18.929 5.7143h-6.0714v-3.9286l-0.57143-0.35714 25.214-11.786 23.571-20 11.071-21.786 2.1429-21.786"/>
    <path d="m276.79 341.29v17.5l-2.5 13.214-14.286 22.5-28.571 13.929-14.643 1.7857 4.2857-4.2857"/>
   </g>
   <g transform="translate(153.83 -127.18)">
    <path d="m53.571 255.93c71.96 31.827 130.54 3.6529 130.71 3.5714" fill="none" stroke="#000" stroke-width="1px"/>
   </g>
   <g transform="translate(153.83 -127.18)">
    <ellipse cx="-64.147" cy="217.06" rx="9.9928" ry="8.6815" fill="url(#radialGradient4345)" stroke-width="0"/>
    <path d="m-50.893 217.72c-5.3579-13.225-13.216-18.671-22.857-18.571" fill="none" stroke="#000" stroke-linecap="round" stroke-linejoin="round" stroke-width="2"/>
   </g>
   <g transform="translate(153.83 -127.18)" fill="none" stroke="#000">
    <path d="m-80.812 227.7 9.0914-1.5152 11.869 1.7678 7.0711-5.8084 1.0102-11.49-2.0203-3.9143" stroke-width="1px"/>
    <path d="m-138.57 273.79s54.017-13.745 70.357-15.714c28.13-3.3902 62.679 3.75 62.679 3.75" stroke-linecap="round" stroke-width="2"/>
    <path d="m-45.714 257.09 4.9107 17.232 10.357-15.982" stroke-width="2"/>
   </g>
  </g>
 </g>
 <g transform="translate(779.03 304.81)" fill="none" stroke="#455a6f" stroke-linecap="round" stroke-opacity=".94118">
  <path d="m-428.8-4.1777c0-162.37 132.8-294 296.62-294 163.82-1e-5 296.62 131.63 296.62 294" stroke-width="2.7975"/>
  <path d="m-434.05-4.2028c0-165.23 135.15-299.18 301.87-299.18 166.72-1e-5 301.87 133.95 301.87 299.18" stroke-width="2.8469"/>
 </g>
</svg>
