<svg xmlns="http://www.w3.org/2000/svg" width="512" height="512" viewBox="0 0 512 512"><g transform="translate(-6.127 -161.64)"><path d="M458.648 643.279c25.184-3.824 29.243-28.753 29.243-28.753L65.364 192.003s-25.176 3.815-29 29z" fill="#fc0" stroke="#000" stroke-width="10" stroke-linecap="round" stroke-linejoin="round"/><path d="M101.613 300.1c-15.525-15.71-25.167-29.427-25.167-29.427s5.842-15.736 23.142-23.143c0 0 22.43 16.288 30.31 24.291m-28.279 28.285c15.71 15.526 29.428 25.168 29.428 25.168s15.736-5.842 23.142-23.142c0 0-16.287-22.43-24.29-30.31" fill="#fc0" stroke="#000" stroke-width="10" stroke-linecap="round" stroke-linejoin="round"/><ellipse transform="rotate(45)" ry="6.5" rx="11.625" cy="126.547" cx="283.248"/><path d="M223.383 350.014s-25.176 3.816-29 29m7.787-50.213s-25.176 3.815-29 29m249.047 191.047s-3.815 25.176-29 29" fill="none" stroke="#000" stroke-width="10" stroke-linecap="round" stroke-linejoin="round"/><circle transform="rotate(45)" r="9.5" cy="110.047" cx="441.373"/><circle transform="rotate(45)" r="9.5" cy="103.547" cx="468.373"/><circle transform="rotate(45)" cx="495.374" cy="110.047" r="9.5"/><circle transform="rotate(45)" r="9.5" cy="110.047" cx="521.374"/><circle transform="rotate(45)" cx="547.374" cy="110.047" r="9.5"/><circle transform="rotate(45)" r="9.5" cy="110.047" cx="573.374"/><circle transform="rotate(45)" cx="599.374" cy="110.047" r="9.5"/><circle transform="rotate(45)" cx="629.374" cy="116.047" r="6"/><circle transform="rotate(45)" r="6" cy="116.047" cx="647.374"/><ellipse transform="rotate(45)" ry="5.25" rx="13" cy="93.297" cx="708.874"/><ellipse transform="rotate(45)" cx="738.874" cy="93.297" rx="13" ry="5.25"/><ellipse transform="rotate(45)" ry="2.5" rx="7" cy="95.047" cx="421.873"/><ellipse transform="rotate(45)" cx="437.873" cy="95.047" rx="7" ry="2.5"/><path d="M459.056 585.691l5.923-5.923m-21.319-21.06l-6.404 6.403m-185.204-198.27l-5.924 5.924m-5.39-17.238l-5.924 5.924m1.858-12.818l236.19 236.19" fill="none" stroke="#000" stroke-width="4" stroke-linecap="round" stroke-linejoin="round"/></g></svg>