<svg xmlns="http://www.w3.org/2000/svg" width="512" height="512" viewBox="0 0 512 512"><g stroke="#000"><path fill="#fc0" stroke-width="10" stroke-linecap="round" stroke-linejoin="round" d="M14.045 57.328h483.91v397.344H14.045z"/><path d="M331.864 350.8l15.346 15.36 23.252-23.273h-91.147v7.835l52.549.078" fill="#fc0" stroke-width="4.386" stroke-linecap="round" stroke-linejoin="round"/><g aria-label="&lt;MARQUEE /&gt;" style="line-height:1.25" font-weight="400" font-size="94.638" font-family="DejaVu Sans Mono" letter-spacing="0" word-spacing="0" stroke-width="4"><path d="M104.048 151.638L34.276 173.47l69.772 21.627v12.485l-86.763-28.518V167.74l86.763-28.517z" style="-inkscape-font-specification:'DejaVu Sans Mono'" fill="#fc0" stroke-width="9.119" stroke-linecap="round" stroke-linejoin="round" transform="matrix(.61438 0 0 1.25273 31.826 64.169)"/><path d="M113.147 139.253h12.476l11.922 35.12 12.015-35.12h12.523v68.991h-8.642v-60.95L141.15 183.66h-7.07l-12.338-36.368v60.951h-8.595zm81.421 8.225l-9.843 35.305h19.686zm-5.637-8.225h11.32l21.119 68.991h-9.658l-5.083-17.975H182.46l-4.99 17.975h-9.658zm69.222 36.413q3.604.924 6.146 3.512 2.541 2.542 6.33 10.213l9.38 18.853h-10.027l-8.225-17.421q-3.558-7.44-6.423-9.565-2.819-2.172-7.394-2.172h-8.918v29.158h-9.38v-68.991h19.223q11.367 0 17.42 5.13 6.054 5.129 6.054 14.833 0 6.839-3.743 11.182-3.697 4.298-10.443 5.268zm-19.131-28.742v24.49h10.212q6.7.001 9.982-3.003 3.28-3.003 3.28-9.195 0-5.961-3.512-9.104-3.465-3.188-10.12-3.188zm71.209 62.568q-.323 0-.924.046-.6.046-.97.046-11.553 0-17.283-8.872-5.684-8.872-5.684-26.894 0-18.068 5.684-26.94 5.73-8.873 17.375-8.873 11.69 0 17.375 8.873 5.73 8.872 5.73 26.94 0 13.585-3.189 21.903-3.142 8.272-9.565 11.599l9.242 8.78-6.978 4.62zm11.552-35.674q0-15.203-3.142-21.719-3.096-6.515-10.212-6.515-7.07 0-10.212 6.515-3.097 6.516-3.097 21.719 0 15.157 3.097 21.672 3.142 6.516 10.212 6.516 7.116 0 10.212-6.47 3.142-6.515 3.142-21.718zm21.904 7.948v-42.513h9.38v46.764q0 5.037.278 7.209.277 2.126.97 3.28 1.479 2.727 4.251 4.113 2.82 1.387 6.793 1.387 4.02 0 6.793-1.387 2.773-1.386 4.298-4.112.693-1.155.97-3.281.277-2.126.277-7.116v-46.857h9.335v42.513q0 10.582-1.34 15.064-1.294 4.436-4.529 7.348-3.05 2.726-6.978 4.066-3.928 1.34-8.826 1.34-4.852 0-8.78-1.34-3.927-1.34-7.023-4.066-3.189-2.865-4.529-7.394-1.34-4.575-1.34-15.018zm59.241-42.513h40.942v7.856h-31.608v20.424h30.221v7.856h-30.22v25h32.485v7.855h-41.82zm56.93 0H500.8v7.856h-31.607v20.424h30.22v7.856h-30.22v25h32.485v7.855h-41.82z" style="-inkscape-font-specification:'DejaVu Sans Mono'" transform="matrix(.61438 0 0 1.25273 31.826 64.169)"/><path style="-inkscape-font-specification:'DejaVu Sans Mono'" d="M615.904 122.147h19.41l-80.297 90.673h-19.513zm17.964 29.491l69.77 21.832-69.77 21.627v12.485l86.762-28.518V167.74l-86.762-28.517z" fill="#fc0" stroke-width="9.119" stroke-linecap="round" stroke-linejoin="round" transform="matrix(.61438 0 0 1.25273 31.826 64.169)"/></g><path d="M140.49 218.6l-15.346-15.36-23.252 23.273h91.147v-7.835l-52.549-.078" fill="#fc0" stroke-width="4.386" stroke-linecap="round" stroke-linejoin="round"/><path d="M14.045 88.751h483.91" fill="none" stroke-width="4"/><path fill="#fc0" stroke-width="3.782" stroke-linecap="round" stroke-linejoin="round" d="M474.302 66.586h14.344v13.849h-14.344zm-22 0h14.344v13.849h-14.344zm-22 0h14.344v13.849h-14.344z"/><path d="M14.045 124.751h483.91" fill="none" stroke-width="4"/><circle cx="34.795" cy="107.274" r="9.872" fill="#fc0" stroke-width="2.531" stroke-linecap="round" stroke-linejoin="round"/><circle r="9.872" cy="107.274" cx="62.795" fill="#fc0" stroke-width="2.531" stroke-linecap="round" stroke-linejoin="round"/><path fill="#fc0" stroke-width="4" stroke-linecap="round" stroke-linejoin="round" d="M87.566 98.805h232.685v16.939H87.566z"/><path fill="#fc0" stroke-width="3.231" stroke-linecap="round" stroke-linejoin="round" d="M339.441 98.42h145.195v17.708H339.441z"/></g></svg>