<svg xmlns="http://www.w3.org/2000/svg" width="512" height="512" viewBox="0 0 512 512"><g transform="translate(0 -161.533)"><path d="M256.21 461.348H67.4l46.887-219.95h141.935m-.01 219.95h188.812l-46.887-219.95H256.2" fill="#fc0" stroke="#000" stroke-width="10"/><path fill="#fc0" stroke="#000" stroke-width="10" stroke-linecap="round" stroke-linejoin="round" d="M66.27 461.07h378.96v84.628H66.27z"/><path fill="#fc0" stroke="#000" stroke-width="10" stroke-linecap="round" stroke-linejoin="round" d="M408.044 464.405h23.667v78.236h-23.667zm-38 0h23.667v78.236h-23.667zm-38 0h23.667v78.236h-23.667zm-38 0h23.667v78.236h-23.667zm-38 0h23.667v78.236h-23.667z"/><path d="M109.649 478.8h88.995v11.024h-88.995z"/><ellipse cx="85.642" cy="484.688" rx="8.03" ry="8.268"/><g fill="none" stroke="#000"><path d="M67.399 461.348H17.732v83.205H66.27m378.331-83.205h49.667v83.205H445.73" stroke-width="10"/><path d="M27.788 471.995h27.484v11.742H27.788zm456.424 0h-27.484v11.742h27.484zM27.788 521.422h27.484v11.742H27.788zm456.424 0h-27.484v11.742h27.484z" stroke-width="4" stroke-linecap="round" stroke-linejoin="round"/></g></g></svg>