<svg xmlns="http://www.w3.org/2000/svg" width="512" height="512" viewBox="0 0 512 512"><g transform="translate(0 -161.533)"><path d="M152.081 522.15l11.434 11.511 107.68-80.327 94.702-95.339-25.378-25.549M152.082 522.151l-11.587-11.356 79.604-108.216L314.8 307.24l25.718 25.207" fill="#fc0" stroke="#000" stroke-width="10" stroke-linecap="round" stroke-linejoin="round"/><ellipse cx="-475.885" cy="260.086" rx="16.224" ry="3.354" transform="scale(-.99664 1.00335) rotate(-45)" fill="#fc0" stroke="#000" stroke-width="10" stroke-linecap="round" stroke-linejoin="round"/><path d="M64.722 631.595L54.13 642.258m18.71-40.334s17.046 18.547 14.645 23.697l-14.35 14.446-19.091-19.22m-10.82-10.605l-10.591 10.662m40.207-18.98s-18.66-16.92-23.794-14.485l-14.35 14.446 19.348 18.962" fill="#fc0" stroke="#000" stroke-width="10" stroke-linecap="round" stroke-linejoin="round"/><ellipse ry="1.729" rx="8.857" cy="262.621" cx="-475.886" transform="scale(-.99664 1.00335) rotate(-45)"/><path d="M72.841 601.924l55.609-55.982 3.493-3.516 24.513-11.911-6.342-6.384m-77.273 77.793l55.609-55.982 3.492-3.517 11.747-24.592 6.426 6.298" fill="#fc0" stroke="#000" stroke-width="10" stroke-linecap="round" stroke-linejoin="round"/><path d="M304.627 317.482c-2.235 2.25 7.316 15.513 21.332 29.623 14.016 14.11 27.19 23.725 29.424 21.475" fill="none" stroke="#000" stroke-width="10" stroke-linecap="round" stroke-linejoin="round"/><path d="M304.627 317.482c-2.235 2.25 7.316 15.513 21.332 29.623 14.016 14.11 27.19 23.725 29.424 21.475" fill="none" stroke="#000" stroke-width="10" stroke-linecap="round" stroke-linejoin="round"/><path d="M315.89 275.362l-1.05 31.84c-2.236 2.25 7.314 15.512 21.33 29.622 14.016 14.11 27.19 23.725 29.422 21.479l31.631-1.06m-81.334-81.881c-3.398 3.42 12.055 24.522 34.515 47.133 22.46 22.61 43.421 38.168 46.819 34.747 3.397-3.42-12.056-24.523-34.515-47.133-22.46-22.611-43.421-38.168-46.819-34.747z" fill="#fc0" stroke="#000" stroke-width="10" stroke-linecap="round" stroke-linejoin="round"/><path d="M479.012 193.023l-10.556 29.26-35.03 35.266c-20.757 24.482-44.275 25.938-62.273 73.448-4.554-1.398-11.82-7.07-16.994-12.318m124.853-125.656l-29.19 10.75-35.03 35.266c-24.342 20.922-25.64 44.448-73.029 62.764 1.429 4.545 7.149 11.772 12.432 16.912" fill="#fc0" stroke="#000" stroke-width="10" stroke-linecap="round" stroke-linejoin="round"/><path d="M450.136 204.326c-.643.648 2.786 5.15 7.66 10.056 4.872 4.906 9.344 8.358 9.988 7.71" fill="none" stroke="#000" stroke-width="10" stroke-linecap="round" stroke-linejoin="round"/><ellipse cx="94.864" cy="-477.95" rx="15.416" ry="9.702" transform="scale(-1.02259 -.97689) rotate(-45)"/></g></svg>