<svg xmlns="http://www.w3.org/2000/svg" xmlns:xlink="http://www.w3.org/1999/xlink" width="512" height="512" viewBox="0 0 512 512"><g transform="translate(0 -161.533)"><path d="M36.306 410.911s39.39-11.68 49.262-11.68" fill="none" stroke="#000" stroke-width="10" stroke-linecap="round" stroke-linejoin="round"/><path id="a" fill="#fc0" fill-opacity="1" stroke="#000" stroke-width="10" stroke-linecap="round" stroke-linejoin="round" stroke-miterlimit="4" stroke-dasharray="none" stroke-opacity="1" d="M180.859 370.346h26.59v137.206h-26.59z"/><use x="0" y="0" xlink:href="#a" id="b" transform="translate(38)" width="100%" height="100%" stroke-width="10" stroke-linecap="round" stroke-linejoin="round" stroke-miterlimit="4" stroke-dasharray="none" fill="#fc0"/><use xlink:href="#b" transform="translate(38)" width="100%" height="100%" stroke-width="10" stroke-linecap="round" stroke-linejoin="round" fill="#fc0"/><path d="M194.154 369.283v-20.209" fill="none" stroke="#000" stroke-width="10" stroke-linecap="round" stroke-linejoin="round"/><ellipse cx="194.154" cy="349.074" rx="12.497" ry="1.33" fill="#fc0" stroke="#000" stroke-width="10" stroke-linecap="round" stroke-linejoin="round"/><path d="M232.155 369.283v-20.209" fill="none" stroke="#000" stroke-width="10" stroke-linecap="round" stroke-linejoin="round"/><ellipse cx="232.155" cy="349.074" rx="12.497" ry="1.33" fill="#fc0" stroke="#000" stroke-width="10" stroke-linecap="round" stroke-linejoin="round"/><path d="M270.155 369.283v-20.209" fill="none" stroke="#000" stroke-width="10" stroke-linecap="round" stroke-linejoin="round"/><ellipse cx="270.155" cy="349.074" rx="12.497" ry="1.33" fill="#fc0" stroke="#000" stroke-width="10" stroke-linecap="round" stroke-linejoin="round"/><path d="M166.336 488.11h14.657l-.167-9.32h-16.37m0 0s-62.425.387-62.425-35.945c0-32.326 28.589-41.841 34.893-43.547l-19.323.117c-12.057 7.138-26.016 20.754-26.016 45.537 0 43.621 74.75 43.158 74.75 43.158m189.984 0h-72.764l-.094-9.32h67.044m5.814 9.32s40.988 2.72 40.988-37.14c0-25.865-24.699-42.863-42.044-51.611l-20.585.032s52.533 15.582 52.533 48.618-36.706 30.782-36.706 30.782" fill="#fc0" stroke="#000" stroke-width="10" stroke-linecap="round" stroke-linejoin="round"/><path d="M207.45 442.336h11.41" fill="#fc0" stroke="#000" stroke-width="10"/><path d="M207.45 450.845h11.41m26.59 12.851h11.41m-11.41 8.509h11.41M85.568 385.35s2.627 7.001 0 13.88m12-13.88s2.627 7.001 0 13.88" fill="none" stroke="#000" stroke-width="10"/><path d="M440.815 423.157s-11.869-23.935-46.436-23.935m46.436-37.808s-11.869 23.935-46.436 23.935m-308.896 0h95.404l-.044 13.882h-95.36m122.009-13.882h11.383m26.688 0h11.312m26.688 0h111.573m-309.568 0c-9.871 0-49.262-11.68-49.262-11.68l-.59.014c1.21 0 2.19 8.338 2.19 18.623 0 10.286-.98 18.624-2.19 18.624m402.102-44.952c12.283-18.326 28.288-46.318 28.334-69.905.445-6.517.886-9.77 1.35-9.77M207.514 399.23h11.361m26.625 0h11.563m26.437 0h111.636m-309.568 0c-9.871 0-49.262 11.68-49.262 11.68l-.59.019c-1.21 0-2.19-8.338-2.19-18.624 0-10.285.98-18.623 2.19-18.623m401.82 44.594c12.32 18.316 28.592 46.564 28.624 70.25m1.342-202.225c1.773 0 3.21 47.46 3.21 106.004 0 58.545-1.437 106.005-3.21 106.005-.466 0-.91-3.288-1.31-9.2l-.032-.585m-285.3 11.847h26.59m11.367 0h26.475m11.658 0h26.5m-38-78.676h11.41m-11.41 8.509h11.41" fill="none" stroke="#000" stroke-width="10"/><path d="M467.38 484.784c-.206-.207-.375-1.218-.375-2.245 0-4.851-3.126-16.62-6.818-25.665-5.123-12.554-16.336-32.707-22.427-40.31-6.447-8.047-16.692-14.159-28.723-17.134-4.221-1.043-5.133-1.06-64.407-1.223l-60.125-.164v-11.435l59.875-.168c58.93-.166 59.942-.185 64.125-1.223 12.625-3.13 22.858-9.146 29.282-17.214 6.371-8.001 17.427-27.887 22.443-40.366 3.599-8.956 6.775-21.021 6.775-25.738 0-.971.192-1.885.427-2.03.902-.558 2.047 50.24 2.062 91.455.015 41.043-1.192 94.39-2.114 93.46zM38.71 392.426c0-8.94.198-16.255.44-16.255.243 0 6.377 1.59 13.634 3.535 7.256 1.945 17.24 4.353 22.187 5.351 4.947.998 9.248 2.064 9.56 2.368.31.304.47 2.71.353 5.348l-.212 4.795-9.546 1.925c-7.43 1.498-26.86 6.376-35.355 8.876-.921.27-1.06-1.827-1.06-15.943zm-3.23 14.706c-.596-3.909-.84-8.257-.84-14.91.001-6.137.227-10.503.717-13.876.341-2.348.345-2.354.58-.937.576 3.463.853 8.293.853 14.875 0 6.566-.208 10.42-.774 14.371-.138.96-.268 1.764-.29 1.786-.022.022-.133-.567-.246-1.309zm173.104-14.937v-5.834h9.193v11.668h-9.193zm38.184 0v-5.834h8.839v11.668h-8.839zm-147.356 4.471c.551-2.6.37-8.2-.325-10.01-.101-.265 3.067-.288 40.303-.288h40.412v11.844H99.084zm-12.241 1.417c0-.075.129-.772.286-1.55.418-2.064.389-6.216-.06-8.444l-.347-1.726 4.877.047 4.877.047.334 1.414c.484 2.053.488 7.256.006 9.015l-.339 1.238-4.817.047c-2.65.026-4.817-.014-4.817-.089z" fill="#fc0"/><path d="M467.502 286.302s-10.502 109.264 0 212.008" fill="none" stroke="#000" stroke-width="10"/><path d="M209.489 446.594v-2.21h7.336v4.42h-7.336zm38.007-20.684v-2.209h7.336v4.42h-7.336zm0 42.074v-2.21h7.336v4.42h-7.336z" fill="#fc0"/></g></svg>